<?xml version="1.0" standalone="no"?>
<!DOCTYPE svg PUBLIC "-//W3C//DTD SVG 20010904//EN"
 "http://www.w3.org/TR/2001/REC-SVG-20010904/DTD/svg10.dtd">
<svg version="1.0" xmlns="http://www.w3.org/2000/svg"
 width="512.000000pt" height="512.000000pt" viewBox="0 0 512.000000 512.000000"
 preserveAspectRatio="xMidYMid meet">
<metadata>
Created by potrace 1.14, written by Peter Selinger 2001-2017
</metadata>
<g transform="translate(0.000000,512.000000) scale(0.100000,-0.100000)"
fill="#000000" stroke="none">
<path d="M404 5105 c-191 -41 -349 -201 -390 -394 -21 -99 -21 -4203 0 -4302
42 -195 200 -353 395 -395 99 -21 4203 -21 4302 0 195 42 353 200 395 395 21
99 21 4203 0 4302 -42 195 -200 353 -395 395 -95 20 -4214 19 -4307 -1z m960
-1130 c41 -27 50 -81 32 -184 -39 -219 -88 -608 -110 -876 -59 -703 -42 -1128
53 -1332 59 -125 165 -139 239 -30 121 176 200 443 347 1166 36 179 62 285 75
307 49 78 177 153 301 175 78 14 114 5 128 -33 4 -13 11 -111 14 -218 24 -751
205 -1361 441 -1482 55 -29 137 -28 191 0 106 56 209 199 279 384 30 81 60
212 49 215 -50 17 -155 95 -234 173 -196 195 -336 473 -406 809 -23 109 -26
150 -26 306 0 153 3 192 21 260 48 175 136 300 249 353 49 22 72 27 143 27 75
0 93 -4 152 -32 295 -139 447 -681 383 -1359 -8 -87 -24 -214 -35 -282 -11
-67 -20 -125 -20 -127 0 -11 110 -4 165 10 88 23 149 61 223 139 76 80 123
149 189 272 29 54 49 82 56 77 37 -21 127 -96 127 -105 0 -26 -100 -196 -158
-269 -158 -198 -346 -298 -557 -299 l-80 0 -39 -118 c-128 -388 -297 -626
-523 -739 -64 -31 -84 -36 -167 -41 -56 -3 -122 0 -158 7 -138 27 -286 130
-383 266 -67 93 -150 274 -190 415 -35 123 -85 376 -85 434 0 16 -3 27 -6 24
-3 -3 -29 -100 -59 -214 -67 -260 -110 -386 -185 -539 -68 -140 -142 -234
-238 -305 -97 -72 -168 -93 -295 -88 -128 5 -195 34 -279 119 -165 168 -242
454 -255 944 -12 461 45 1039 137 1407 46 178 76 252 121 292 106 97 294 142
373 91z"/>
<path d="M3064 3710 c-34 -14 -80 -78 -100 -138 -27 -81 -27 -346 0 -487 64
-342 222 -644 411 -783 l60 -44 7 53 c15 121 20 440 9 588 -27 351 -107 636
-214 758 -49 55 -116 76 -173 53z"/>
</g>
</svg>
